<?xml version="1.0" encoding="UTF-8"?>
<!DOCTYPE svg PUBLIC "-//W3C//DTD SVG 1.1//EN" "http://www.w3.org/Graphics/SVG/1.1/DTD/svg11.dtd">
<svg xmlns="http://www.w3.org/2000/svg" version="1.1" width="256px" height="256px" style="shape-rendering:geometricPrecision; text-rendering:geometricPrecision; image-rendering:optimizeQuality; fill-rule:evenodd; clip-rule:evenodd" xmlns:xlink="http://www.w3.org/1999/xlink">
<g><path style="opacity:0.138" fill="#010101" d="M 71.5,44.5 C 75.8913,45.0085 80.2246,45.8418 84.5,47C 128.579,72.1214 172.412,97.6214 216,123.5C 218,130.167 218,136.833 216,143.5C 172.412,169.379 128.579,194.879 84.5,220C 80.7085,221.018 76.8752,221.851 73,222.5C 69.265,222.094 65.765,221.094 62.5,219.5C 62,218.5 61.5,217.5 61,216.5C 60.6667,211.833 60.3333,207.167 60,202.5C 59.0678,151.817 59.4011,101.151 61,50.5C 61.5831,48.9984 62.4164,47.6651 63.5,46.5C 66.3106,45.9204 68.9773,45.2537 71.5,44.5 Z"/></g>
<g><path style="opacity:1" fill="#dddddd" d="M 185.5,115.5 C 185.265,116.097 184.765,116.43 184,116.5C 160.677,105.56 137.511,94.0601 114.5,82C 102.219,75.6063 89.2193,73.7729 75.5,76.5C 74.3854,80.2633 73.3854,83.9299 72.5,87.5C 72.8279,76.3206 72.4946,65.3206 71.5,54.5C 70.8996,50.2519 72.233,49.0852 75.5,51C 112.394,72.2743 149.061,93.7743 185.5,115.5 Z"/></g>
<g><path style="opacity:1" fill="#d2d2d2" d="M 185.5,115.5 C 192.934,118.718 199.934,122.718 206.5,127.5C 205.423,128.705 204.09,129.372 202.5,129.5C 182.906,119.204 162.906,109.704 142.5,101C 120.5,100.333 98.5,100.333 76.5,101C 74.3941,105.033 73.0608,109.199 72.5,113.5C 72.5,104.833 72.5,96.1667 72.5,87.5C 73.3854,83.9299 74.3854,80.2633 75.5,76.5C 89.2193,73.7729 102.219,75.6063 114.5,82C 137.511,94.0601 160.677,105.56 184,116.5C 184.765,116.43 185.265,116.097 185.5,115.5 Z"/></g>
<g><path style="opacity:1" fill="#cacaca" d="M 202.5,129.5 C 202.5,130.167 202.167,130.5 201.5,130.5C 188.353,124.056 175.02,117.889 161.5,112C 133.161,111.167 104.827,111.333 76.5,112.5C 74.6573,116.749 73.3239,121.082 72.5,125.5C 72.5,121.5 72.5,117.5 72.5,113.5C 73.0608,109.199 74.3941,105.033 76.5,101C 98.5,100.333 120.5,100.333 142.5,101C 162.906,109.704 182.906,119.204 202.5,129.5 Z"/></g>
<g><path style="opacity:1" fill="#bfbfbf" d="M 201.5,130.5 C 201.158,131.338 200.492,131.672 199.5,131.5C 195.806,130.492 192.139,129.325 188.5,128C 151.162,127.167 113.829,127.333 76.5,128.5C 74.519,133.809 73.1857,139.143 72.5,144.5C 72.5,138.167 72.5,131.833 72.5,125.5C 73.3239,121.082 74.6573,116.749 76.5,112.5C 104.827,111.333 133.161,111.167 161.5,112C 175.02,117.889 188.353,124.056 201.5,130.5 Z"/></g>
<g><path style="opacity:1" fill="#b3b3b3" d="M 199.5,131.5 C 189.366,137.737 179.033,143.737 168.5,149.5C 137.826,149.167 107.159,149.5 76.5,150.5C 74.4552,158.169 73.1219,165.836 72.5,173.5C 72.5,163.833 72.5,154.167 72.5,144.5C 73.1857,139.143 74.519,133.809 76.5,128.5C 113.829,127.333 151.162,127.167 188.5,128C 192.139,129.325 195.806,130.492 199.5,131.5 Z"/></g>
<g><path style="opacity:1" fill="#a9a9a9" d="M 168.5,149.5 C 155.994,157.59 142.994,164.923 129.5,171.5C 111.821,171.167 94.1541,171.5 76.5,172.5C 74.1827,183.025 73.1827,193.692 73.5,204.5C 72.5058,194.347 72.1724,184.014 72.5,173.5C 73.1219,165.836 74.4552,158.169 76.5,150.5C 107.159,149.5 137.826,149.167 168.5,149.5 Z"/></g>
<g><path style="opacity:1" fill="#9c9c9c" d="M 129.5,171.5 C 111.198,182.989 92.5315,193.989 73.5,204.5C 73.1827,193.692 74.1827,183.025 76.5,172.5C 94.1541,171.5 111.821,171.167 129.5,171.5 Z"/></g>
<g><path style="opacity:0.563" fill="#626262" d="M 71.5,54.5 C 72.4946,65.3206 72.8279,76.3206 72.5,87.5C 72.5,96.1667 72.5,104.833 72.5,113.5C 72.5,117.5 72.5,121.5 72.5,125.5C 72.5,131.833 72.5,138.167 72.5,144.5C 72.5,154.167 72.5,163.833 72.5,173.5C 72.1724,184.014 72.5058,194.347 73.5,204.5C 73.44,205.043 73.1067,205.376 72.5,205.5C 71.5001,155.171 71.1667,104.838 71.5,54.5 Z"/></g>
</svg>
